<svg width="41" height="41" viewBox="0 0 41 41" fill="none" xmlns="http://www.w3.org/2000/svg">
<mask id="mask0_2_774" style="mask-type:alpha" maskUnits="userSpaceOnUse" x="5" y="1" width="33" height="39">
<path d="M21.7813 16.2292H28.1875C28.6406 16.2292 29.0751 16.4092 29.3955 16.7295C29.7159 17.0499 29.8959 17.4844 29.8959 17.9375V37.5834H11.1042V17.9375C11.1042 17.4844 11.2842 17.0499 11.6045 16.7295C11.9249 16.4092 12.3594 16.2292 12.8125 16.2292H14.9479" stroke="white" stroke-width="4" stroke-linecap="round" stroke-linejoin="round"/>
<path d="M14.5208 6.83335H12.3854C11.1395 6.83335 9.94452 7.32831 9.06349 8.20934C8.18246 9.09037 7.6875 10.2853 7.6875 11.5313C7.6875 12.7772 8.18246 13.9722 9.06349 14.8532C9.94452 15.7342 11.1395 16.2292 12.3854 16.2292H16.2292V25.1979C16.2292 25.7643 16.4541 26.3074 16.8546 26.7079C17.2551 27.1084 17.7982 27.3334 18.3646 27.3334C18.9309 27.3334 19.4741 27.1084 19.8746 26.7079C20.275 26.3074 20.5 25.7643 20.5 25.1979V16.2292H28.6146C29.8605 16.2292 31.0555 15.7342 31.9365 14.8532C32.8175 13.9722 33.3125 12.7772 33.3125 11.5313C33.3125 10.2853 32.8175 9.09037 31.9365 8.20934C31.0555 7.32831 29.8605 6.83335 28.6146 6.83335H24.7708C24.7708 6.83335 23.9167 3.41669 19.6458 3.41669C15.375 3.41669 14.5208 6.83335 14.5208 6.83335Z" fill="white" stroke="white" stroke-width="4" stroke-linecap="round" stroke-linejoin="round"/>
<path d="M29.8958 17.9375H34.1666C34.6197 17.9375 35.0542 18.1175 35.3746 18.4379C35.695 18.7582 35.875 19.1928 35.875 19.6458V23.9167C35.875 24.8228 35.515 25.6919 34.8743 26.3326C34.2335 26.9734 33.3645 27.3333 32.4583 27.3333H29.8958" stroke="white" stroke-width="4" stroke-linecap="round"/>
</mask>
<g mask="url(#mask0_2_774)">
<path d="M0 0H41V41H0V0Z" fill="#9B2115"/>
</g>
</svg>
