<svg width="24" height="27" viewBox="0 0 24 27" fill="none" xmlns="http://www.w3.org/2000/svg">
<path d="M20.8929 11.8582H15V6.71534H13.0714C13.6684 5.91841 13.9891 4.94853 13.985 3.95282C13.985 2.47211 13.2844 1.0808 12.1565 0.321964L11.678 0L11.1995 0.321964C10.0714 1.08091 9.37098 2.47216 9.37098 3.95282C9.36696 4.94854 9.68781 5.91841 10.2849 6.71529H8.14286V11.8581H3.10714C2.28336 11.8591 1.49359 12.1867 0.911095 12.7692C0.328595 13.3517 0.000935806 14.1415 0 14.9653V24.6046C0.000510452 25.0591 0.181286 25.4948 0.502666 25.8162C0.824047 26.1376 1.25979 26.3184 1.71429 26.3189H22.2857C22.7402 26.3184 23.176 26.1376 23.4973 25.8162C23.8187 25.4948 23.9995 25.0591 24 24.6046V14.9653C23.9991 14.1416 23.6714 13.3518 23.0889 12.7693C22.5064 12.1868 21.7166 11.8591 20.8929 11.8582V11.8582ZM11.678 2.18721C12.0524 2.65243 12.2707 3.28361 12.2707 3.95288C12.2707 4.62214 12.0524 5.25338 11.678 5.71854C11.3036 5.25338 11.0853 4.62214 11.0853 3.95282C11.0853 3.2835 11.3036 2.65243 11.678 2.18721ZM9.85714 8.42962H13.2857V11.8582H9.85714V8.42962ZM1.71429 14.9653C1.71471 14.5961 1.86159 14.242 2.12271 13.9809C2.38383 13.7198 2.73786 13.5729 3.10714 13.5725H20.8929C21.2621 13.5729 21.6162 13.7198 21.8773 13.9809C22.1384 14.242 22.2853 14.5961 22.2857 14.9653V16.657L21.1286 17.1676C20.9023 17.2671 20.6577 17.3185 20.4105 17.3185C20.1632 17.3185 19.9187 17.2671 19.6924 17.1676L17.6786 16.279L15.6643 17.1675C15.438 17.2671 15.1934 17.3185 14.9462 17.3185C14.6989 17.3185 14.4544 17.2671 14.228 17.1675L12.2143 16.2789L10.2 17.1674C9.97369 17.267 9.72913 17.3185 9.48187 17.3185C9.23462 17.3185 8.99006 17.267 8.76375 17.1674L6.75 16.279L4.73609 17.1674C4.50978 17.267 4.26522 17.3185 4.01796 17.3185C3.77071 17.3185 3.52615 17.267 3.29984 17.1674L1.71429 16.468V14.9653ZM22.2857 24.6046H1.71429V18.3417L2.60775 18.7359C3.05214 18.9315 3.53235 19.0324 4.01786 19.0324C4.50337 19.0324 4.98357 18.9315 5.42796 18.7359L6.75 18.1526L8.07209 18.7359C8.51647 18.9315 8.99667 19.0324 9.48217 19.0324C9.96767 19.0324 10.4479 18.9315 10.8923 18.7359L12.2143 18.1526L13.5363 18.7359C13.9806 18.9314 14.4608 19.0324 14.9463 19.0324C15.4318 19.0324 15.912 18.9314 16.3564 18.7359L17.6786 18.1526L19.0006 18.736C19.445 18.9315 19.9252 19.0325 20.4106 19.0325C20.8961 19.0325 21.3763 18.9315 21.8207 18.736L22.2864 18.5305L22.2868 24.6046H22.2857Z" fill="#9B2115"/>
</svg>
