<svg width="31" height="31" viewBox="0 0 31 31" fill="none" xmlns="http://www.w3.org/2000/svg">
<path d="M29.0624 0C29.5763 0 30.0691 0.192121 30.4325 0.534099C30.7959 0.876077 31 1.3399 31 1.82353C31 2.30716 30.7959 2.77098 30.4325 3.11296C30.0691 3.45494 29.5763 3.64706 29.0624 3.64706H26.6986L26.1076 5.87541C26.1018 5.90107 26.0953 5.9266 26.0883 5.952L23.4571 15.8538L25.1873 17.4804C27.6286 19.778 25.9003 23.7059 22.4476 23.7059H5.81166C5.29778 23.7059 4.80496 23.5138 4.44159 23.1718C4.07823 22.8298 3.87409 22.366 3.87409 21.8824C3.87409 21.3987 4.07823 20.9349 4.44159 20.5929C4.80496 20.2509 5.29778 20.0588 5.81166 20.0588H22.4476L20.51 18.2353H7.74922C7.38949 18.2351 7.03691 18.1407 6.73098 17.9626C6.42505 17.7845 6.17784 17.5297 6.01704 17.2269L0.204348 6.28571C0.0567741 6.00776 -0.0128937 5.69894 0.00196075 5.38854C0.0168152 5.07814 0.115696 4.77646 0.289221 4.51213C0.462748 4.2478 0.70516 4.02958 0.993462 3.87818C1.28176 3.72678 1.60638 3.64722 1.93653 3.64706H22.7072L23.3079 1.38041C23.4128 0.98608 23.6548 0.636063 23.9953 0.38596C24.3358 0.135857 24.7554 1.06867e-05 25.1873 0H29.0624ZM3.87409 28.2647C3.87409 28.9902 4.1803 29.6859 4.72534 30.1988C5.27039 30.7118 6.00963 31 6.78044 31C7.55125 31 8.29049 30.7118 8.83554 30.1988C9.38058 29.6859 9.68679 28.9902 9.68679 28.2647C9.68679 27.5393 9.38058 26.8435 8.83554 26.3306C8.29049 25.8176 7.55125 25.5294 6.78044 25.5294C6.00963 25.5294 5.27039 25.8176 4.72534 26.3306C4.1803 26.8435 3.87409 27.5393 3.87409 28.2647ZM22.281 31C21.5101 31 20.7709 30.7118 20.2259 30.1988C19.6808 29.6859 19.3746 28.9902 19.3746 28.2647C19.3746 27.5393 19.6808 26.8435 20.2259 26.3306C20.7709 25.8176 21.5101 25.5294 22.281 25.5294C23.0518 25.5294 23.791 25.8176 24.3361 26.3306C24.8811 26.8435 25.1873 27.5393 25.1873 28.2647C25.1873 28.9902 24.8811 29.6859 24.3361 30.1988C23.791 30.7118 23.0518 31 22.281 31Z" fill="white"/>
</svg>
