<svg width="32" height="32" viewBox="0 0 32 32" fill="none" xmlns="http://www.w3.org/2000/svg">
<path d="M14.92 16.25C14.92 16.5152 14.8147 16.7696 14.6272 16.9571C14.4396 17.1446 14.1853 17.25 13.92 17.25C13.6548 17.25 13.4005 17.1446 13.2129 16.9571C13.0254 16.7696 12.92 16.5152 12.92 16.25C12.92 15.9848 13.0254 15.7304 13.2129 15.5429C13.4005 15.3554 13.6548 15.25 13.92 15.25C14.1853 15.25 14.4396 15.3554 14.6272 15.5429C14.8147 15.7304 14.92 15.9848 14.92 16.25Z" fill="white" stroke="white"/>
<path d="M23.3472 8.56815L23.6792 8.17798C25.5201 6.01451 24.0728 2.57107 21.1841 2.5H21.0516C20.0709 2.50637 19.1231 2.8541 18.3709 3.48347L18.05 3.1M23.3472 8.56815L16.0596 30.5C15.6311 30.5003 15.2068 30.4157 14.8113 30.2509C14.4158 30.0861 14.0568 29.8446 13.7553 29.5401L13.3996 29.1811L13.0444 29.5406C12.7402 29.8484 12.3772 30.0919 11.9771 30.2568C11.5769 30.4216 11.1477 30.5043 10.715 30.5L10.7135 30.5C9.08026 30.4888 7.76195 29.257 7.52644 27.6973L7.41936 26.9882L6.79102 27.3339C6.59222 27.4433 6.36892 27.5004 6.14201 27.5H6.14104C5.1862 27.5 4.53035 26.527 4.89345 25.6262L5.78176 23.5043C5.78182 23.5041 5.78188 23.504 5.78194 23.5038C5.86389 23.3097 5.98851 23.1441 6.14078 23.0174L6.88371 22.3995L5.95014 22.15C4.89037 21.8667 3.87548 21.3617 2.98524 20.4631L2.98394 20.4618C2.58788 20.065 2.46723 19.6317 2.52312 19.1865C2.56325 18.8699 2.7052 18.5218 2.82229 18.242L2.82369 18.2386L2.87369 18.1166L2.87371 18.1166L2.87528 18.1127L2.88059 18.0994L2.88689 18.0878L2.8903 18.0815L2.89353 18.075C3.49678 16.8782 4.21147 15.9403 5.08168 15.2612C5.81784 14.6885 6.67626 14.2935 7.59008 14.1069L7.87776 14.0481L7.9666 13.7683C7.98566 13.7083 8.00512 13.649 8.02509 13.5918L8.10285 13.3692L7.98045 13.1675C7.69022 12.6895 7.52484 12.1461 7.49953 11.5874C7.46547 10.8355 7.68352 10.0937 8.11907 9.47984C8.55462 8.86597 9.18271 8.41515 9.90368 8.19893L9.90505 8.19851C10.4466 8.03439 10.81 7.53949 10.81 6.98V6.97C10.81 5.10614 12.3162 3.6 14.18 3.6C14.6671 3.6 15.1285 3.7041 15.5479 3.88734C16.4847 4.30543 17.5879 4.14409 18.3725 3.48215L18.05 3.1M23.3472 8.56815L23.7454 8.89056M23.3472 8.56815L23.7454 8.89056M18.05 3.1C17.41 3.64 16.51 3.77 15.75 3.43C15.27 3.22 14.74 3.1 14.18 3.1C12.04 3.1 10.31 4.83 10.31 6.97V6.98C10.31 7.32 10.09 7.62 9.76004 7.72L21.05 2C19.9526 2.00674 18.8917 2.3957 18.05 3.1ZM23.7454 8.89056C25.5493 10.3515 26.7795 12.4024 27.2191 14.6817L27.2205 14.6888M23.7454 8.89056L27.2205 14.6888M27.2205 14.6888L27.222 14.6958M27.2205 14.6888L27.222 14.6958M27.222 14.6958L29.8678 26.5599C29.8679 26.5602 29.8679 26.5605 29.868 26.5608C29.9162 26.7793 29.9382 27.0091 29.9496 27.2232L29.95 27.235V27.25V27.2506M27.222 14.6958L29.95 27.2506M29.95 27.2506C29.9508 27.8946 29.7602 28.5242 29.4023 29.0596C29.0444 29.595 28.5355 30.0119 27.9402 30.2573C27.3448 30.5028 26.6899 30.5658 26.0587 30.4382C25.4275 30.3107 24.8485 29.9984 24.3952 29.541L24.0407 29.1834M29.95 27.2506L24.0407 29.1834M24.0407 29.1834L23.6856 29.5403M24.0407 29.1834L23.6856 29.5403M23.6856 29.5403C23.3833 29.8442 23.024 30.0853 22.6283 30.25C22.2326 30.4147 21.8082 30.4996 21.3796 30.5H21.3795M23.6856 29.5403L21.3795 30.5M21.3795 30.5C20.9511 30.5004 20.5268 30.4159 20.1313 30.2513C19.7357 30.0867 19.3768 29.8453 19.0751 29.541L18.7207 29.1835M21.3795 30.5L18.7207 29.1835M18.7207 29.1835L18.3656 29.5403M18.7207 29.1835L18.3656 29.5403M18.3656 29.5403C18.0633 29.8442 17.704 30.0853 17.3083 30.25M18.3656 29.5403L17.3083 30.25M17.3083 30.25C16.9126 30.4147 16.4883 30.4996 16.0597 30.5L17.3083 30.25ZM7.49004 19.5V19H6.99004V18.5H7.49004V16.86C7.49004 16.5325 7.50532 16.2084 7.53579 15.8884L7.61449 15.0621L6.84723 15.3788C6.43514 15.549 6.04817 15.7745 5.697 16.0492C5.03143 16.5692 4.4454 17.2933 3.9229 18.2628L3.52556 19H2.90117L3.80019 19.8611C4.69698 20.7201 5.74937 21.1369 6.90527 21.3358L7.49004 21.4364V20.843V19.5ZM25.748 14.977L26.2392 14.8833C25.8406 12.7944 24.7023 10.9191 23.033 9.60152C21.3669 8.28629 19.2831 7.61461 17.1628 7.709H17.1623L17.1516 7.70946C12.2969 7.91827 8.49004 11.9904 8.49004 16.86V27.2C8.49004 28.4596 9.49181 29.4922 10.7239 29.5H10.727H10.73H10.731V29L25.748 14.977Z" fill="white" stroke="white"/>
</svg>
