<svg width="25" height="16" viewBox="0 0 25 16" fill="none" xmlns="http://www.w3.org/2000/svg">
<path d="M23.75 0H1.25C0.918479 0 0.600537 0.120408 0.366116 0.334735C0.131696 0.549063 0 0.839753 0 1.14286V5.71429H1.11625C2.36125 5.71429 3.51625 6.49257 3.71625 7.616C3.77718 7.94404 3.75908 8.28029 3.66321 8.60128C3.56734 8.92226 3.39601 9.22026 3.16118 9.47446C2.92635 9.72866 2.63368 9.93295 2.30358 10.0731C1.97349 10.2132 1.61393 10.2858 1.25 10.2857H0V14.8571C0 15.1602 0.131696 15.4509 0.366116 15.6653C0.600537 15.8796 0.918479 16 1.25 16H23.75C24.0815 16 24.3995 15.8796 24.6339 15.6653C24.8683 15.4509 25 15.1602 25 14.8571V10.2857H23.75C23.3861 10.2858 23.0265 10.2132 22.6964 10.0731C22.3663 9.93295 22.0736 9.72866 21.8388 9.47446C21.604 9.22026 21.4327 8.92226 21.3368 8.60128C21.2409 8.28029 21.2228 7.94404 21.2838 7.616C21.4838 6.49257 22.6388 5.71429 23.8838 5.71429H25V1.14286C25 0.839753 24.8683 0.549063 24.6339 0.334735C24.3995 0.120408 24.0815 0 23.75 0ZM11.25 13.7143H8.75V11.4286H11.25V13.7143ZM11.25 9.14286H8.75V6.85714H11.25V9.14286ZM11.25 4.57143H8.75V2.28571H11.25V4.57143Z" fill="white"/>
</svg>
