<svg width="9" height="9" viewBox="0 0 9 9" fill="none" xmlns="http://www.w3.org/2000/svg">
<path d="M8.43748 0C8.58667 0 8.72975 0.0557771 8.83524 0.155061C8.94073 0.254345 9 0.389003 9 0.529412C9 0.669821 8.94073 0.804479 8.83524 0.903762C8.72975 1.00305 8.58667 1.05882 8.43748 1.05882H7.75121L7.57964 1.70576C7.57794 1.71321 7.57606 1.72063 7.57402 1.728L6.81011 4.60271L7.31244 5.07494C8.02122 5.742 7.51945 6.88235 6.51704 6.88235H1.68726C1.53807 6.88235 1.39499 6.82658 1.28949 6.72729C1.184 6.62801 1.12474 6.49335 1.12474 6.35294C1.12474 6.21253 1.184 6.07788 1.28949 5.97859C1.39499 5.87931 1.53807 5.82353 1.68726 5.82353H6.51704L5.95452 5.29412H2.24977C2.14534 5.29407 2.04298 5.26665 1.95416 5.21494C1.86534 5.16324 1.79357 5.08928 1.74688 5.00135L0.0593271 1.82488C0.0164833 1.74419 -0.00374317 1.65453 0.000569344 1.56442C0.00488186 1.4743 0.0335894 1.38672 0.0839682 1.30997C0.134346 1.23323 0.204724 1.16988 0.288424 1.12592C0.372125 1.08197 0.466371 1.05887 0.562219 1.05882H6.59242L6.7668 0.400765C6.79727 0.286281 6.86752 0.184663 6.96638 0.112053C7.06524 0.0394423 7.18704 3.10258e-06 7.31244 0H8.43748ZM1.12474 8.20588C1.12474 8.4165 1.21363 8.61848 1.37187 8.76741C1.53011 8.91633 1.74473 9 1.96852 9C2.1923 9 2.40692 8.91633 2.56516 8.76741C2.7234 8.61848 2.81229 8.4165 2.81229 8.20588C2.81229 7.99527 2.7234 7.79328 2.56516 7.64436C2.40692 7.49543 2.1923 7.41177 1.96852 7.41177C1.74473 7.41177 1.53011 7.49543 1.37187 7.64436C1.21363 7.79328 1.12474 7.99527 1.12474 8.20588ZM6.46867 9C6.24488 9 6.03026 8.91633 5.87202 8.76741C5.71378 8.61848 5.62489 8.4165 5.62489 8.20588C5.62489 7.99527 5.71378 7.79328 5.87202 7.64436C6.03026 7.49543 6.24488 7.41177 6.46867 7.41177C6.69245 7.41177 6.90707 7.49543 7.06531 7.64436C7.22355 7.79328 7.31244 7.99527 7.31244 8.20588C7.31244 8.4165 7.22355 8.61848 7.06531 8.76741C6.90707 8.91633 6.69245 9 6.46867 9Z" fill="white"/>
</svg>
