<svg width="34" height="32" viewBox="0 0 34 32" fill="none" xmlns="http://www.w3.org/2000/svg">
<path d="M22.3351 15.1176V15.1353M24.1129 1V7.71118C26.3131 8.97492 27.9882 10.9749 28.8382 13.3529H31.2222C31.6937 13.3529 32.1459 13.5389 32.4793 13.8698C32.8127 14.2008 33 14.6496 33 15.1176V18.6471C33 19.1151 32.8127 19.5639 32.4793 19.8949C32.1459 20.2258 31.6937 20.4118 31.2222 20.4118H28.8364C28.2384 22.0889 27.2247 23.5897 25.8889 24.7759V28.3529C25.8889 29.055 25.6079 29.7283 25.1078 30.2247C24.6077 30.7211 23.9295 31 23.2222 31C22.515 31 21.8367 30.7211 21.3366 30.2247C20.8365 29.7283 20.5555 29.055 20.5555 28.3529V27.3241C19.9681 27.4218 19.3734 27.4708 18.7778 27.4706H11.6666C11.071 27.4708 10.4763 27.4218 9.88885 27.3241V28.3529C9.88885 29.055 9.60789 29.7283 9.1078 30.2247C8.6077 30.7211 7.92942 31 7.22218 31C6.51493 31 5.83665 30.7211 5.33655 30.2247C4.83646 29.7283 4.5555 29.055 4.5555 28.3529V24.8235L4.55728 24.7759C2.94666 23.3465 1.81126 21.4654 1.30135 19.3814C0.791442 17.2974 0.931066 15.1088 1.70174 13.1053C2.47242 11.1018 3.83782 9.37789 5.61723 8.16163C7.39664 6.94536 9.50616 6.29413 11.6666 6.29412H16.1111L24.1111 1H24.1129Z" stroke="#9B2115" stroke-width="2" stroke-linecap="round" stroke-linejoin="round"/>
</svg>
