<svg width="27" height="27" viewBox="0 0 27 27" fill="none" xmlns="http://www.w3.org/2000/svg">
<path d="M13.5 2.25C7.27875 2.25 2.25 7.27875 2.25 13.5C2.25 19.7213 7.27875 24.75 13.5 24.75C19.7213 24.75 24.75 19.7213 24.75 13.5C24.75 7.27875 19.7213 2.25 13.5 2.25ZM18.3375 18.3375C18.2334 18.4418 18.1098 18.5245 17.9737 18.581C17.8376 18.6374 17.6917 18.6665 17.5444 18.6665C17.397 18.6665 17.2511 18.6374 17.115 18.581C16.979 18.5245 16.8553 18.4418 16.7513 18.3375L13.5 15.0863L10.2487 18.3375C10.0384 18.5478 9.7531 18.666 9.45562 18.666C9.15814 18.666 8.87285 18.5478 8.6625 18.3375C8.45215 18.1271 8.33398 17.8419 8.33398 17.5444C8.33398 17.3971 8.36299 17.2512 8.41936 17.1151C8.47573 16.9791 8.55835 16.8554 8.6625 16.7513L11.9137 13.5L8.6625 10.2487C8.45215 10.0384 8.33398 9.7531 8.33398 9.45562C8.33398 9.15814 8.45215 8.87285 8.6625 8.6625C8.87285 8.45215 9.15814 8.33398 9.45562 8.33398C9.7531 8.33398 10.0384 8.45215 10.2487 8.6625L13.5 11.9137L16.7513 8.6625C16.8554 8.55835 16.9791 8.47573 17.1151 8.41936C17.2512 8.36299 17.3971 8.33398 17.5444 8.33398C17.6917 8.33398 17.8375 8.36299 17.9736 8.41936C18.1097 8.47573 18.2333 8.55835 18.3375 8.6625C18.4417 8.76665 18.5243 8.8903 18.5806 9.02639C18.637 9.16247 18.666 9.30833 18.666 9.45562C18.666 9.60292 18.637 9.74878 18.5806 9.88486C18.5243 10.0209 18.4417 10.1446 18.3375 10.2487L15.0863 13.5L18.3375 16.7513C18.765 17.1788 18.765 17.8987 18.3375 18.3375Z" fill="#9B2115"/>
</svg>
