<svg width="19" height="19" viewBox="0 0 19 19" fill="none" xmlns="http://www.w3.org/2000/svg">
<path d="M16.625 2.96875V1.78125C15.4446 1.78125 14.5231 2.11078 13.8908 2.755C13.5774 3.07795 13.3452 3.47071 13.2133 3.90094C12.9117 3.69313 12.5614 3.5625 12.1719 3.5625C10.6739 3.5625 10.1074 4.75475 10.0938 5.56641C10.0935 5.70268 10.0889 5.83892 10.0801 5.97491C9.68111 7.15469 8.90627 6.37272 8.90627 4.75C6.99261 6.78181 9.05471 7.53112 7.87908 8.70675C7.62852 8.95731 7.03002 9.05469 6.65596 8.59572C6.16255 8.0085 7.16658 7.04366 6.21599 6.32225C6.38996 7.40822 5.55277 7.18319 5.26955 6.95103C4.90083 6.64941 4.23049 5.98619 5.34377 4.15625C4.20496 4.67578 3.51858 5.73088 3.56252 6.53125C3.68127 8.63016 6.92552 10.453 5.61511 11.6779C4.95427 12.2972 3.65574 11.46 4.15627 10.0938C3.53283 10.4114 2.79955 11.1678 3.03408 12.3441C3.19558 13.1575 4.37833 14.9922 2.37502 16.0312L2.40055 16.0384L2.34949 17.2188C2.38867 17.2211 2.54899 17.2259 2.80667 17.2259C4.4763 17.2259 10.2559 16.9682 13.8142 13.5612C15.6786 11.7753 16.625 9.40975 16.625 6.53125C16.625 5.71009 16.2515 4.15625 14.8438 4.15625C14.6698 4.15625 14.5077 4.18 14.3545 4.21681C14.4216 4.01731 14.5374 3.78931 14.7369 3.58566C15.1406 3.17775 15.7736 2.96875 16.625 2.96875ZM14.8438 5.34375C15.4049 5.34375 15.4375 6.52175 15.4375 6.53125C15.4375 9.07072 14.614 11.1465 12.9954 12.7003C10.3675 15.2196 6.22727 15.8436 3.97992 15.9921C4.52736 15.8668 5.18583 15.6115 5.90724 15.1246C9.38186 13.2204 11.2094 8.72991 11.2765 5.74038H11.2813V5.57828C11.2836 5.43875 11.3395 4.75 12.1719 4.75C12.6795 4.75 13.0625 5.47141 13.0625 5.9375H14.25C14.25 5.68219 14.3124 5.34375 14.8438 5.34375Z" fill="white"/>
</svg>
