<svg width="32" height="32" viewBox="0 0 32 32" fill="none" xmlns="http://www.w3.org/2000/svg">
<path d="M20.8 20.8C21.2533 20.8 21.6336 20.6464 21.9408 20.3392C22.2469 20.0331 22.4 19.6533 22.4 19.2V6.4C22.4 5.94667 22.2469 5.5664 21.9408 5.2592C21.6336 4.95307 21.2533 4.8 20.8 4.8H17.56C17.1067 4.8 16.7333 4.95307 16.44 5.2592C16.1467 5.5664 16 5.94667 16 6.4C16 6.85333 16.1536 7.2336 16.4608 7.5408C16.7669 7.84693 17.1467 8 17.6 8H19.2V19.24C19.2 19.6933 19.3536 20.0667 19.6608 20.36C19.9669 20.6533 20.3467 20.8 20.8 20.8ZM9.6 25.6C8.72 25.6 7.96693 25.2869 7.3408 24.6608C6.7136 24.0336 6.4 23.28 6.4 22.4V3.2C6.4 2.32 6.7136 1.5664 7.3408 0.9392C7.96693 0.313066 8.72 0 9.6 0H28.8C29.68 0 30.4336 0.313066 31.0608 0.9392C31.6869 1.5664 32 2.32 32 3.2V22.4C32 23.28 31.6869 24.0336 31.0608 24.6608C30.4336 25.2869 29.68 25.6 28.8 25.6H9.6ZM3.2 32C2.32 32 1.56693 31.6869 0.9408 31.0608C0.3136 30.4336 0 29.68 0 28.8V7.96C0 7.50667 0.1536 7.13333 0.4608 6.84C0.766934 6.54667 1.14667 6.4 1.6 6.4C2.05333 6.4 2.4336 6.55307 2.7408 6.8592C3.04693 7.1664 3.2 7.54667 3.2 8V28.8H24.04C24.4933 28.8 24.8667 28.9536 25.16 29.2608C25.4533 29.5669 25.6 29.9467 25.6 30.4C25.6 30.8533 25.4464 31.2331 25.1392 31.5392C24.8331 31.8464 24.4533 32 24 32H3.2Z" fill="#440B05"/>
</svg>
