<svg width="32" height="32" viewBox="0 0 32 32" fill="none" xmlns="http://www.w3.org/2000/svg">
<path d="M16 20.8H20.8C21.68 20.8 22.4336 20.4864 23.0608 19.8592C23.6869 19.2331 24 18.48 24 17.6V15.2C24 14.5067 23.7733 13.9333 23.32 13.48C22.8667 13.0267 22.2933 12.8 21.6 12.8C22.2933 12.8 22.8667 12.5733 23.32 12.12C23.7733 11.6667 24 11.0933 24 10.4V8C24 7.12 23.6869 6.36693 23.0608 5.7408C22.4336 5.1136 21.68 4.8 20.8 4.8H15.96C15.5067 4.8 15.1333 4.95307 14.84 5.2592C14.5467 5.5664 14.4 5.94667 14.4 6.4C14.4 6.85333 14.5536 7.2336 14.8608 7.5408C15.1669 7.84693 15.5467 8 16 8H20.8V11.2H19.16C18.7067 11.2 18.3333 11.3531 18.04 11.6592C17.7467 11.9664 17.6 12.3467 17.6 12.8C17.6 13.2533 17.7536 13.6331 18.0608 13.9392C18.3669 14.2464 18.7467 14.4 19.2 14.4H20.8V17.6H15.96C15.5067 17.6 15.1333 17.7531 14.84 18.0592C14.5467 18.3664 14.4 18.7467 14.4 19.2C14.4 19.6533 14.5536 20.0331 14.8608 20.3392C15.1669 20.6464 15.5467 20.8 16 20.8ZM9.6 25.6C8.72 25.6 7.96693 25.2869 7.3408 24.6608C6.7136 24.0336 6.4 23.28 6.4 22.4V3.2C6.4 2.32 6.7136 1.5664 7.3408 0.9392C7.96693 0.313066 8.72 0 9.6 0H28.8C29.68 0 30.4336 0.313066 31.0608 0.9392C31.6869 1.5664 32 2.32 32 3.2V22.4C32 23.28 31.6869 24.0336 31.0608 24.6608C30.4336 25.2869 29.68 25.6 28.8 25.6H9.6ZM3.2 32C2.32 32 1.56693 31.6869 0.9408 31.0608C0.3136 30.4336 0 29.68 0 28.8V7.96C0 7.50667 0.1536 7.13333 0.4608 6.84C0.766934 6.54667 1.14667 6.4 1.6 6.4C2.05333 6.4 2.4336 6.55307 2.7408 6.8592C3.04693 7.1664 3.2 7.54667 3.2 8V28.8H24.04C24.4933 28.8 24.8667 28.9536 25.16 29.2608C25.4533 29.5669 25.6 29.9467 25.6 30.4C25.6 30.8533 25.4464 31.2331 25.1392 31.5392C24.8331 31.8464 24.4533 32 24 32H3.2Z" fill="#9B2115"/>
</svg>
