<svg width="31" height="35" viewBox="0 0 31 35" fill="none" xmlns="http://www.w3.org/2000/svg">
<path d="M1.62993e-07 13.7476V11.8726C-6.89927e-05 11.0524 0.185211 10.2421 0.542856 9.49852C0.9005 8.75493 1.42185 8.09602 2.07038 7.56797C2.71891 7.03992 3.47893 6.65552 4.29716 6.44169C5.11539 6.22786 5.97204 6.18978 6.80708 6.33013C7.35059 4.50538 8.49246 2.90112 10.0605 1.7593C11.6285 0.617473 13.5376 0 15.5 0C17.4624 0 19.3715 0.617473 20.9395 1.7593C22.5075 2.90112 23.6494 4.50538 24.1929 6.33013C25.028 6.18978 25.8846 6.22786 26.7028 6.44169C27.5211 6.65552 28.2811 7.03992 28.9296 7.56797C29.5781 8.09602 30.0995 8.75493 30.4571 9.49852C30.8148 10.2421 31.0001 11.0524 31 11.8726V13.7476C31.0006 17.5098 29.5402 21.1349 26.9085 23.904C24.2767 26.6731 20.6658 28.384 16.7917 28.6975V32.4975H14.2083V28.6975C10.3342 28.384 6.72329 26.6731 4.09155 23.904C1.45981 21.1349 -0.000563301 17.5098 1.62993e-07 13.7476ZM11.5888 12.4951H19.4112C19.2963 11.5045 19.4559 10.5022 19.8736 9.591C20.2913 8.67981 20.9519 7.89259 21.7878 7.31012C21.4532 5.93954 20.6503 4.7184 19.5091 3.84452C18.3679 2.97064 16.9553 2.49519 15.5 2.49519C14.0447 2.49519 12.6321 2.97064 11.4909 3.84452C10.3497 4.7184 9.54675 5.93954 9.21217 7.31012C10.0485 7.8928 10.7094 8.68043 11.1271 9.5921C11.5448 10.5038 11.7042 11.5066 11.5888 12.4976V12.4951ZM8.64642 12.4951C8.74221 12.0836 8.74111 11.6564 8.64321 11.2454C8.54531 10.8343 8.3531 10.4498 8.08083 10.1204C7.80856 9.79093 7.4632 9.52498 7.07032 9.34222C6.67745 9.15946 6.24712 9.06456 5.81121 9.06456C5.3753 9.06456 4.94497 9.15946 4.55209 9.34222C4.15922 9.52498 3.81385 9.79093 3.54158 10.1204C3.26932 10.4498 3.07711 10.8343 2.97921 11.2454C2.8813 11.6564 2.88021 12.0836 2.976 12.4951H8.64642ZM22.3536 12.4951H28.0214C28.1172 12.0836 28.1161 11.6564 28.0182 11.2454C27.9203 10.8343 27.7281 10.4498 27.4558 10.1204C27.1836 9.79093 26.8382 9.52498 26.4453 9.34222C26.0524 9.15946 25.6221 9.06456 25.1862 9.06456C24.7503 9.06456 24.32 9.15946 23.9271 9.34222C23.5342 9.52498 23.1889 9.79093 22.9166 10.1204C22.6443 10.4498 22.4521 10.8343 22.3542 11.2454C22.2563 11.6564 22.2552 12.0836 22.351 12.4951H22.3536ZM15.5 26.2475C18.7025 26.2475 21.7908 25.0962 24.1657 23.0169C26.5405 20.9377 28.0325 18.0788 28.3521 14.9951H2.64792C2.96753 18.0788 4.45951 20.9377 6.83433 23.0169C9.20916 25.0962 12.2975 26.2475 15.5 26.2475ZM10.3333 32.5H20.6667C21.0092 32.5 21.3378 32.6317 21.58 32.8661C21.8222 33.1005 21.9583 33.4185 21.9583 33.75C21.9583 34.0815 21.8222 34.3995 21.58 34.6339C21.3378 34.8683 21.0092 35 20.6667 35H10.3333C9.99076 35 9.66222 34.8683 9.41999 34.6339C9.17775 34.3995 9.04167 34.0815 9.04167 33.75C9.04167 33.4185 9.17775 33.1005 9.41999 32.8661C9.66222 32.6317 9.99076 32.5 10.3333 32.5Z" fill="#9B2115"/>
</svg>
