<svg width="26" height="24" viewBox="0 0 26 24" fill="none" xmlns="http://www.w3.org/2000/svg">
<path d="M1.29975 13.2001H2.59978V21.6C2.59978 22.9236 3.7659 24 5.19983 24H20.8002C22.2341 24 23.4002 22.9236 23.4002 21.6V13.2001H24.7002C24.9573 13.2001 25.2086 13.1297 25.4224 12.9978C25.6361 12.8659 25.8027 12.6785 25.9011 12.4593C25.9994 12.2401 26.0252 11.9988 25.975 11.7661C25.9249 11.5333 25.8011 11.3196 25.6194 11.1517L13.9191 0.351838C13.7985 0.240304 13.6552 0.15182 13.4975 0.0914472C13.3398 0.031075 13.1707 0 13 0C12.8293 0 12.6602 0.031075 12.5025 0.0914472C12.3448 0.15182 12.2015 0.240304 12.0809 0.351838L0.380631 11.1517C0.198875 11.3196 0.075104 11.5333 0.0249651 11.7661C-0.0251738 11.9988 0.000570648 12.2401 0.0989438 12.4593C0.197317 12.6785 0.363902 12.8659 0.577639 12.9978C0.791377 13.1297 1.04267 13.2001 1.29975 13.2001ZM10.3999 21.6V15.6001H15.6001V21.6H10.3999ZM13 2.89701L20.8002 10.0969V15.6001L20.8015 21.6H18.2001V15.6001C18.2001 14.2765 17.034 13.2001 15.6001 13.2001H10.3999C8.96601 13.2001 7.79989 14.2765 7.79989 15.6001V21.6H5.19983V10.0969L13 2.89701Z" fill="white"/>
</svg>
