<svg width="48" height="48" viewBox="0 0 48 48" fill="none" xmlns="http://www.w3.org/2000/svg">
<path d="M24 4C26.6264 4 29.2272 4.51732 31.6537 5.52241C34.0802 6.5275 36.285 8.00069 38.1421 9.85786C39.9993 11.715 41.4725 13.9198 42.4776 16.3463C43.4827 18.7728 44 21.3736 44 24C44 29.3043 41.8929 34.3914 38.1421 38.1421C34.3914 41.8929 29.3043 44 24 44C21.3736 44 18.7728 43.4827 16.3463 42.4776C13.9198 41.4725 11.715 39.9993 9.85786 38.1421C6.10714 34.3914 4 29.3043 4 24C4 18.6957 6.10714 13.6086 9.85786 9.85786C13.6086 6.10714 18.6957 4 24 4ZM22 14C20.9391 14 19.9217 14.4214 19.1716 15.1716C18.4214 15.9217 18 16.9391 18 18V30C18 31.0609 18.4214 32.0783 19.1716 32.8284C19.9217 33.5786 20.9391 34 22 34H26C27.0609 34 28.0783 33.5786 28.8284 32.8284C29.5786 32.0783 30 31.0609 30 30V28H26V30H22V18H26V20H30V18C30 16.9391 29.5786 15.9217 28.8284 15.1716C28.0783 14.4214 27.0609 14 26 14H22Z" fill="#9B2115"/>
</svg>
