<svg width="33" height="32" viewBox="0 0 33 32" fill="none" xmlns="http://www.w3.org/2000/svg">
<path d="M31.35 11.5893C31.3198 10.579 31.0309 9.59345 30.5109 8.72678C29.9909 7.86011 29.2572 7.14137 28.38 6.63929C28.1697 5.20204 27.4483 3.88876 26.3483 2.94021C25.2482 1.99165 23.8431 1.47139 22.3905 1.47479C21.8335 1.47383 21.2788 1.54595 20.7405 1.68929C19.6048 0.605003 18.095 0 16.5247 0C14.9545 0 13.4447 0.605003 12.309 1.68929C11.7707 1.54595 11.216 1.47383 10.659 1.47479C9.20078 1.46341 7.78769 1.98007 6.68071 2.92934C5.57373 3.87862 4.84762 5.19639 4.6365 6.63929C3.75625 7.13931 3.01928 7.85716 2.49631 8.72397C1.97333 9.59078 1.68191 10.5774 1.65 11.5893C1.21239 11.5893 0.792709 11.7631 0.483274 12.0726C0.173839 12.382 0 12.8017 0 13.2393C7.35771e-05 16.1356 0.762512 18.9808 2.21069 21.4891C3.65886 23.9973 5.74174 26.0801 8.25 27.5283V29.7393C8.25 30.1769 8.42384 30.5966 8.73327 30.906C9.04271 31.2155 9.46239 31.3893 9.9 31.3893H23.1C23.5376 31.3893 23.9573 31.2155 24.2667 30.906C24.5762 30.5966 24.75 30.1769 24.75 29.7393V27.5283C27.2583 26.0801 29.3411 23.9973 30.7893 21.4891C32.2375 18.9808 32.9999 16.1356 33 13.2393C33 12.8017 32.8262 12.382 32.5167 12.0726C32.2073 11.7631 31.7876 11.5893 31.35 11.5893ZM4.95 11.5893C4.99191 11.068 5.18867 10.5711 5.51501 10.1625C5.84136 9.75379 6.28239 9.45199 6.7815 9.29579L8.151 8.86679L7.887 7.46429C7.89131 7.10893 7.96557 6.75789 8.10556 6.43123C8.24554 6.10457 8.4485 5.80868 8.70285 5.56047C8.95719 5.31225 9.25794 5.11657 9.58792 4.98459C9.91789 4.85261 10.2706 4.78693 10.626 4.79129C11.1025 4.78856 11.5725 4.90182 11.9955 5.12129L13.332 5.86379L14.157 4.59329C14.415 4.20874 14.7637 3.8936 15.1723 3.67569C15.5809 3.45779 16.0369 3.3438 16.5 3.3438C16.9631 3.3438 17.4191 3.45779 17.8277 3.67569C18.2363 3.8936 18.585 4.20874 18.843 4.59329L19.668 5.86379L21.0045 5.12129C21.4275 4.90182 21.8975 4.78856 22.374 4.79129C23.0877 4.78231 23.7763 5.05395 24.2917 5.54772C24.8071 6.04148 25.1079 6.71789 25.1295 7.43129L24.8655 8.83379L26.2185 9.29579C26.7176 9.45199 27.1586 9.75379 27.485 10.1625C27.8113 10.5711 28.0081 11.068 28.05 11.5893H4.95Z" fill="#9B2115"/>
</svg>
