<svg width="26" height="26" viewBox="0 0 26 26" fill="none" xmlns="http://www.w3.org/2000/svg">
<path d="M24.98 21.2181C24.3278 19.7586 23.3813 18.4329 22.1933 17.3148C21.0089 16.1935 19.6059 15.2995 18.0617 14.6822C18.0478 14.6756 18.034 14.6724 18.0202 14.6658C20.1742 13.196 21.5744 10.8018 21.5744 8.1005C21.5744 3.62563 17.7367 0 13 0C8.26333 0 4.42559 3.62563 4.42559 8.1005C4.42559 10.8018 5.82585 13.196 7.97982 14.6691C7.96599 14.6756 7.95216 14.6789 7.93833 14.6854C6.38941 15.3028 4.99952 16.1879 3.80671 17.3181C2.61981 18.437 1.67349 19.7625 1.02003 21.2214C0.37806 22.6496 0.0318323 24.1808 8.64563e-05 25.7322C-0.000836348 25.767 0.00563604 25.8017 0.0191224 25.8342C0.0326088 25.8666 0.0528363 25.8962 0.0786128 25.9212C0.104389 25.9461 0.135194 25.966 0.16921 25.9795C0.203227 25.993 0.239768 26 0.27668 26H2.35113C2.50326 26 2.62427 25.8857 2.62773 25.7452C2.69688 23.2236 3.76868 20.8621 5.66335 19.0721C7.62371 17.2201 10.2271 16.201 13 16.201C15.7729 16.201 18.3763 17.2201 20.3367 19.0721C22.2313 20.8621 23.3031 23.2236 23.3723 25.7452C23.3757 25.8889 23.4967 26 23.6489 26H25.7233C25.7602 26 25.7968 25.993 25.8308 25.9795C25.8648 25.966 25.8956 25.9461 25.9214 25.9212C25.9472 25.8962 25.9674 25.8666 25.9809 25.8342C25.9944 25.8017 26.0008 25.767 25.9999 25.7322C25.9653 24.1709 25.6231 22.652 24.98 21.2181ZM13 13.7186C11.413 13.7186 9.91943 13.1339 8.79577 12.0724C7.67211 11.0108 7.05323 9.59975 7.05323 8.1005C7.05323 6.60126 7.67211 5.1902 8.79577 4.12864C9.91943 3.06709 11.413 2.48241 13 2.48241C14.587 2.48241 16.0806 3.06709 17.2042 4.12864C18.3279 5.1902 18.9468 6.60126 18.9468 8.1005C18.9468 9.59975 18.3279 11.0108 17.2042 12.0724C16.0806 13.1339 14.587 13.7186 13 13.7186Z" fill="white"/>
</svg>
