<svg width="25" height="22" viewBox="0 0 25 22" fill="none" xmlns="http://www.w3.org/2000/svg">
<path d="M7.00788 12.3672L10.708 8.93812L1.52954 0.444269C0.55004 1.35462 0 2.58774 0 3.87331C0 5.15889 0.55004 6.39201 1.52954 7.30236L7.00788 12.3672ZM15.8726 10.174C17.873 11.0343 20.6841 10.4285 22.763 8.50192C25.2603 6.18762 25.7441 2.86762 23.8221 1.08646C21.9131 -0.68259 18.3307 -0.246386 15.8203 2.06792C13.7414 3.99448 13.0877 6.59959 14.016 8.45345L1.25497 20.2794L3.09851 21.9879L12.107 13.6637L21.1025 22L22.9461 20.2915L13.9506 11.9552L15.8726 10.174Z" fill="white"/>
</svg>
