<svg width="24" height="24" viewBox="0 0 24 24" fill="none" xmlns="http://www.w3.org/2000/svg">
<path fill-rule="evenodd" clip-rule="evenodd" d="M12 0C5.37273 0 0 5.37273 0 12C0 18.6273 5.37273 24 12 24C18.6273 24 24 18.6273 24 12C24 5.37273 18.6273 0 12 0ZM10.7913 8.65636C11.0422 8.16218 11.2276 7.92764 11.3815 7.80545C11.4971 7.71382 11.6542 7.63636 12 7.63636C12.6818 7.63636 13.0909 8.14909 13.0909 8.70327C13.0909 9.00655 13.032 9.15709 12.8705 9.34909C12.6447 9.61745 12.2269 9.94364 11.4 10.4902L10.9091 10.8131V13.0909C10.9091 13.3802 11.024 13.6577 11.2286 13.8623C11.4332 14.0669 11.7107 14.1818 12 14.1818C12.2893 14.1818 12.5668 14.0669 12.7714 13.8623C12.976 13.6577 13.0909 13.3802 13.0909 13.0909V11.9815C13.6822 11.5735 14.1785 11.1829 14.5385 10.7553C15.0589 10.1378 15.2727 9.47891 15.2727 8.70327C15.2727 7.09964 14.0367 5.45455 12 5.45455C11.2538 5.45455 10.5938 5.64655 10.0276 6.09491C9.49964 6.51273 9.13964 7.08764 8.84509 7.67127C8.77665 7.79942 8.73449 7.93995 8.72109 8.08461C8.70769 8.22927 8.72332 8.37515 8.76706 8.51368C8.8108 8.65222 8.88177 8.78063 8.97581 8.89137C9.06985 9.0021 9.18506 9.09294 9.31468 9.15855C9.4443 9.22416 9.58572 9.26322 9.73064 9.27343C9.87556 9.28365 10.0211 9.26482 10.1586 9.21804C10.2961 9.17126 10.423 9.09748 10.5316 9.00103C10.6402 8.90458 10.7285 8.7874 10.7913 8.65636ZM13.0909 16.9091C13.0909 16.6198 12.976 16.3423 12.7714 16.1377C12.5668 15.9331 12.2893 15.8182 12 15.8182C11.7107 15.8182 11.4332 15.9331 11.2286 16.1377C11.024 16.3423 10.9091 16.6198 10.9091 16.9091V17.4545C10.9091 17.7439 11.024 18.0214 11.2286 18.2259C11.4332 18.4305 11.7107 18.5455 12 18.5455C12.2893 18.5455 12.5668 18.4305 12.7714 18.2259C12.976 18.0214 13.0909 17.7439 13.0909 17.4545V16.9091Z" fill="#9B2115"/>
</svg>
