<svg width="25" height="25" viewBox="0 0 25 25" fill="none" xmlns="http://www.w3.org/2000/svg">
<path fill-rule="evenodd" clip-rule="evenodd" d="M12.5 0C5.6 0 0 5.6 0 12.5C0 19.4 5.6 25 12.5 25C19.4 25 25 19.4 25 12.5C25 5.6 19.4 0 12.5 0ZM18.625 16.8625L16.875 18.6125C16.625 18.8625 16.2375 18.8625 15.9875 18.6125L11.725 14.35C10.2 14.8875 8.425 14.5625 7.2 13.3375C6.54204 12.6763 6.11491 11.8205 5.98204 10.8972C5.84918 9.97392 6.01767 9.0324 6.4625 8.2125L9.4 11.15L11.1625 9.3875L8.225 6.4625C9.875 5.575 11.9625 5.8125 13.35 7.2C14.575 8.425 14.9 10.2 14.3625 11.725L18.625 15.9875C18.8625 16.225 18.8625 16.625 18.625 16.8625Z" fill="#9B2115"/>
</svg>
